# xmcd CD database file
#
# Track frame offsets:
#	150
#	13688
#	27838
#	40242
#	53796
#	65076
#	80589
#	100214
#	112169
#	129743
#	146961
#	159754
#	169731
#	182527
#
# Disc length: 2627 seconds
#
# Revision: 2
# Processed by: cddbd v1.5.2PL0 Copyright (c) Steve Scherf et al.
# Submitted via: CDex 1.51
#
DISCID=c00a410e
DTITLE=José Mendes - Para Sempre - José Mendes - Para Sempre
DYEAR=1900
DGENRE=
TTITLE0=Pára Pedro 
TTITLE1=Não Aperta Aparício
TTITLE2=Surpresa da Vida
TTITLE3=Laços da Saudade
TTITLE4=Última Lembrança
TTITLE5=Vá Embora Tristeza
TTITLE6=Churrasco
TTITLE7=Parabéns
TTITLE8=Brasileiro Meu Irmão
TTITLE9=Andarengo
TTITLE10=Palavra Triste
TTITLE11=Pequena Paisagem de Amor
TTITLE12=Não Chores Chinoca
TTITLE13=Picaço Velho
EXTD=
EXTT0=
EXTT1=
EXTT2=
EXTT3=
EXTT4=
EXTT5=
EXTT6=
EXTT7=
EXTT8=
EXTT9=
EXTT10=
EXTT11=
EXTT12=
EXTT13=
PLAYORDER=
